<svg width="33" height="38" viewBox="0 0 33 38" fill="none" xmlns="http://www.w3.org/2000/svg">
<path d="M17.108 25.5463C16.7885 25.5753 16.5081 25.504 16.1436 25.2149L10.269 20.4802C10.0076 20.2623 9.85655 20.0182 9.8261 19.6827C9.76666 19.0276 10.204 18.5207 10.875 18.4598C11.1786 18.4323 11.5417 18.5282 11.7886 18.7636L14.4347 21.1171L15.6241 22.1529L15.3108 19.765L13.7827 2.92426C13.7218 2.25319 14.2448 1.6258 14.9318 1.56345C15.6189 1.50111 16.2623 2.02267 16.3232 2.69374L17.8513 19.5344L17.9729 21.9398L18.9404 20.7082L21.1357 17.9154C21.3362 17.6395 21.6441 17.4827 21.9637 17.4537C22.6188 17.3942 23.1721 17.8112 23.2315 18.4663C23.262 18.8018 23.1414 19.0705 22.9235 19.3319L17.997 25.0467C17.7065 25.3953 17.4435 25.5158 17.108 25.5463ZM8.90667 36.8905C5.56729 37.1935 3.73883 35.684 3.44017 32.3926L1.99325 16.4466C1.69459 13.1552 3.22148 11.3412 6.56086 11.0382L11.0187 10.6337L11.2521 13.2062L6.82624 13.6078C5.22845 13.7528 4.42795 14.6953 4.57874 16.357L5.99956 32.0153C6.15034 33.677 7.10741 34.4601 8.7052 34.3151L26.9519 32.6594C28.5338 32.5159 29.3662 31.5704 29.2154 29.9087L27.7946 14.2504C27.6438 12.5887 26.6548 11.8085 25.073 11.9521L20.6631 12.3522L20.4297 9.77979L24.8875 9.37529C28.2269 9.07228 30.0553 10.5817 30.354 13.8732L31.8009 29.8191C32.0996 33.1106 30.5727 34.9245 27.2333 35.2275L8.90667 36.8905Z" fill="white"/>
</svg>
