<svg width="1014" height="59" viewBox="0 0 1014 59" fill="none" xmlns="http://www.w3.org/2000/svg">
<path opacity="0.4" d="M0.248999 57.592L10.3674 1.5328C10.4218 1.3152 10.5578 1.2064 10.7754 1.2064H22.6074C22.825 1.2064 22.961 1.3152 23.0154 1.5328L32.7258 57.592C32.7802 57.864 32.6714 58 32.3994 58H23.3418C23.1242 58 22.9882 57.864 22.9338 57.592L22.0362 51.6352H10.9386L10.041 57.592C9.9866 57.864 9.8506 58 9.633 58H0.575399C0.357799 58 0.248999 57.864 0.248999 57.592ZM12.5706 42.904H20.4042L17.0586 19.9744L16.569 16.9552L16.2426 19.9744L12.5706 42.904ZM38.1732 58C37.9556 58 37.8468 57.864 37.8468 57.592L37.9284 1.6144C37.9284 1.3424 38.0644 1.2064 38.3364 1.2064H47.394C47.666 1.2064 47.802 1.3424 47.802 1.6144L47.7204 47.9632H64.53C64.802 47.9632 64.938 48.0992 64.938 48.3712V57.592C64.938 57.864 64.802 58 64.53 58H38.1732ZM70.606 58C70.3884 58 70.2796 57.864 70.2796 57.592L70.3612 1.6144C70.3612 1.3424 70.4972 1.2064 70.7692 1.2064H79.8268C80.0988 1.2064 80.2348 1.3424 80.2348 1.6144L80.1532 47.9632H96.9628C97.2348 47.9632 97.3708 48.0992 97.3708 48.3712V57.592C97.3708 57.864 97.2348 58 96.9628 58H70.606ZM119.718 58C119.5 58 119.391 57.864 119.391 57.592V11.08H108.783C108.511 11.08 108.375 10.944 108.375 10.672L108.457 1.5328C108.457 1.3152 108.566 1.2064 108.783 1.2064H139.791C140.063 1.2064 140.199 1.3152 140.199 1.5328V10.672C140.199 10.944 140.091 11.08 139.873 11.08H129.183L129.265 57.592C129.265 57.864 129.156 58 128.939 58H119.718ZM144.556 58C144.338 58 144.23 57.864 144.23 57.592L144.311 1.5328C144.311 1.3152 144.447 1.2064 144.719 1.2064H153.777C154.049 1.2064 154.185 1.3152 154.185 1.5328L154.103 23.728H166.343V1.5328C166.343 1.3152 166.452 1.2064 166.67 1.2064H175.727C175.999 1.2064 176.135 1.3152 176.135 1.5328L176.298 57.592C176.298 57.864 176.162 58 175.89 58H166.751C166.479 58 166.343 57.864 166.343 57.592V33.6016H154.103V57.592C154.103 57.864 153.994 58 153.777 58H144.556ZM183.366 58C183.094 58 182.958 57.864 182.958 57.592L183.039 1.5328C183.039 1.3152 183.148 1.2064 183.366 1.2064H192.505C192.723 1.2064 192.831 1.3152 192.831 1.5328L192.913 57.592C192.913 57.864 192.804 58 192.587 58H183.366ZM213.963 58.816C211.025 58.816 208.332 58.0816 205.884 56.6128C203.491 55.0896 201.559 53.104 200.091 50.656C198.676 48.1536 197.969 45.4064 197.969 42.4144V38.6608C197.969 38.3888 198.105 38.2528 198.377 38.2528H207.516C207.734 38.2528 207.843 38.3888 207.843 38.6608V42.4144C207.843 44.2096 208.441 45.76 209.638 47.0656C210.835 48.3168 212.276 48.9424 213.963 48.9424C215.649 48.9424 217.091 48.2896 218.287 46.984C219.484 45.6784 220.083 44.1552 220.083 42.4144C220.083 40.4016 218.777 38.6608 216.166 37.192C215.295 36.7024 213.935 35.9408 212.086 34.9072C210.236 33.8736 208.495 32.8944 206.863 31.9696C203.871 30.2288 201.641 28.0528 200.172 25.4416C198.758 22.776 198.051 19.784 198.051 16.4656C198.051 13.4192 198.785 10.6992 200.254 8.3056C201.723 5.8576 203.654 3.9264 206.047 2.512C208.495 1.0976 211.134 0.390399 213.963 0.390399C216.846 0.390399 219.484 1.1248 221.878 2.5936C224.326 4.008 226.257 5.9392 227.671 8.3872C229.14 10.7808 229.875 13.4736 229.875 16.4656V23.1568C229.875 23.3744 229.766 23.4832 229.548 23.4832H220.409C220.191 23.4832 220.083 23.3744 220.083 23.1568L220.001 16.4656C220.001 14.5616 219.403 13.0112 218.206 11.8144C217.009 10.6176 215.595 10.0192 213.963 10.0192C212.276 10.0192 210.835 10.672 209.638 11.9776C208.441 13.2288 207.843 14.7248 207.843 16.4656C207.843 18.2608 208.223 19.7568 208.985 20.9536C209.747 22.1504 211.134 23.2928 213.147 24.3808C213.419 24.544 213.935 24.8432 214.697 25.2784C215.513 25.6592 216.383 26.1216 217.308 26.6656C218.233 27.1552 219.049 27.5904 219.756 27.9712C220.518 28.352 220.98 28.5968 221.143 28.7056C223.863 30.2288 226.012 32.1056 227.59 34.336C229.167 36.512 229.956 39.2048 229.956 42.4144C229.956 45.5152 229.222 48.3168 227.753 50.8192C226.339 53.2672 224.407 55.2256 221.959 56.6944C219.566 58.1088 216.9 58.816 213.963 58.816ZM248.152 58C247.88 58 247.744 57.864 247.744 57.592L247.825 1.5328C247.825 1.3152 247.934 1.2064 248.152 1.2064H257.291C257.509 1.2064 257.617 1.3152 257.617 1.5328L257.699 57.592C257.699 57.864 257.59 58 257.373 58H248.152ZM265.611 58C265.176 58 264.958 57.8096 264.958 57.4288L264.877 1.8592C264.877 1.424 265.094 1.2064 265.529 1.2064H272.873L286.664 33.3568L286.256 1.8592C286.256 1.424 286.501 1.2064 286.99 1.2064H295.069C295.395 1.2064 295.558 1.424 295.558 1.8592L295.64 57.5104C295.64 57.8368 295.504 58 295.232 58H288.051L273.934 27.9712L274.505 57.3472C274.505 57.7824 274.261 58 273.771 58H265.611ZM328.223 58.816C325.177 58.816 322.429 58.1088 319.981 56.6944C317.588 55.2256 315.684 53.24 314.269 50.7376C312.909 48.1808 312.229 45.3248 312.229 42.1696V38.416C312.229 38.1984 312.338 38.0896 312.556 38.0896H321.777C321.994 38.0896 322.103 38.2256 322.103 38.4976V42.1696C322.103 44.1824 322.674 45.8144 323.817 47.0656C324.959 48.3168 326.428 48.9424 328.223 48.9424C329.855 48.9424 331.269 48.2624 332.466 46.9024C333.663 45.5424 334.261 43.9648 334.261 42.1696V1.6144C334.261 1.3968 334.37 1.288 334.588 1.288H343.727C343.945 1.288 344.053 1.424 344.053 1.696L344.135 42.1696C344.135 45.1616 343.401 47.936 341.932 50.4928C340.517 52.9952 338.613 55.008 336.22 56.5312C333.826 58.0544 331.161 58.816 328.223 58.816ZM365.316 58.816C362.433 58.816 359.767 58.0816 357.319 56.6128C354.871 55.0896 352.913 53.0768 351.444 50.5744C350.03 48.072 349.322 45.3248 349.322 42.3328L349.486 1.5328C349.486 1.3152 349.594 1.2064 349.812 1.2064H358.951C359.169 1.2064 359.278 1.3152 359.278 1.5328V42.3328C359.278 44.1824 359.849 45.76 360.991 47.0656C362.188 48.3168 363.63 48.9424 365.316 48.9424C367.057 48.9424 368.498 48.3168 369.641 47.0656C370.838 45.76 371.436 44.1824 371.436 42.3328V1.5328C371.436 1.3152 371.545 1.2064 371.762 1.2064H380.902C381.119 1.2064 381.228 1.3152 381.228 1.5328L381.391 42.3328C381.391 45.3792 380.657 48.1536 379.188 50.656C377.774 53.1584 375.842 55.144 373.394 56.6128C371.001 58.0816 368.308 58.816 365.316 58.816ZM401.706 58.816C398.769 58.816 396.076 58.0816 393.628 56.6128C391.234 55.0896 389.303 53.104 387.834 50.656C386.42 48.1536 385.713 45.4064 385.713 42.4144V38.6608C385.713 38.3888 385.849 38.2528 386.121 38.2528H395.26C395.478 38.2528 395.586 38.3888 395.586 38.6608V42.4144C395.586 44.2096 396.185 45.76 397.382 47.0656C398.578 48.3168 400.02 48.9424 401.706 48.9424C403.393 48.9424 404.834 48.2896 406.031 46.984C407.228 45.6784 407.826 44.1552 407.826 42.4144C407.826 40.4016 406.521 38.6608 403.91 37.192C403.039 36.7024 401.679 35.9408 399.83 34.9072C397.98 33.8736 396.239 32.8944 394.607 31.9696C391.615 30.2288 389.385 28.0528 387.916 25.4416C386.502 22.776 385.794 19.784 385.794 16.4656C385.794 13.4192 386.529 10.6992 387.998 8.3056C389.466 5.8576 391.398 3.9264 393.791 2.512C396.239 1.0976 398.878 0.390399 401.706 0.390399C404.59 0.390399 407.228 1.1248 409.622 2.5936C412.07 4.008 414.001 5.9392 415.415 8.3872C416.884 10.7808 417.618 13.4736 417.618 16.4656V23.1568C417.618 23.3744 417.51 23.4832 417.292 23.4832H408.153C407.935 23.4832 407.826 23.3744 407.826 23.1568L407.745 16.4656C407.745 14.5616 407.146 13.0112 405.95 11.8144C404.753 10.6176 403.338 10.0192 401.706 10.0192C400.02 10.0192 398.578 10.672 397.382 11.9776C396.185 13.2288 395.586 14.7248 395.586 16.4656C395.586 18.2608 395.967 19.7568 396.729 20.9536C397.49 22.1504 398.878 23.2928 400.89 24.3808C401.162 24.544 401.679 24.8432 402.441 25.2784C403.257 25.6592 404.127 26.1216 405.052 26.6656C405.977 27.1552 406.793 27.5904 407.5 27.9712C408.262 28.352 408.724 28.5968 408.887 28.7056C411.607 30.2288 413.756 32.1056 415.334 34.336C416.911 36.512 417.7 39.2048 417.7 42.4144C417.7 45.5152 416.966 48.3168 415.497 50.8192C414.082 53.2672 412.151 55.2256 409.703 56.6944C407.31 58.1088 404.644 58.816 401.706 58.816ZM431.137 58C430.919 58 430.81 57.864 430.81 57.592V11.08H420.202C419.93 11.08 419.794 10.944 419.794 10.672L419.876 1.5328C419.876 1.3152 419.985 1.2064 420.202 1.2064H451.21C451.482 1.2064 451.618 1.3152 451.618 1.5328V10.672C451.618 10.944 451.509 11.08 451.292 11.08H440.602L440.684 57.592C440.684 57.864 440.575 58 440.357 58H431.137ZM482.775 58.816C479.783 58.816 477.063 58.0816 474.615 56.6128C472.222 55.0896 470.318 53.0768 468.903 50.5744C467.489 48.072 466.782 45.2704 466.782 42.1696L466.863 16.7104C466.863 13.7184 467.543 10.9984 468.903 8.5504C470.318 6.048 472.222 4.0624 474.615 2.5936C477.063 1.0704 479.783 0.3088 482.775 0.3088C485.767 0.3088 488.46 1.0432 490.854 2.512C493.247 3.9808 495.151 5.9664 496.566 8.4688C497.98 10.9168 498.687 13.664 498.687 16.7104V20.464C498.687 20.6816 498.578 20.7904 498.361 20.7904H489.222C489.004 20.7904 488.895 20.6816 488.895 20.464V16.7104C488.895 14.9152 488.297 13.3648 487.1 12.0592C485.958 10.7536 484.516 10.1008 482.775 10.1008C480.817 10.1008 479.321 10.7808 478.287 12.1408C477.254 13.4464 476.737 14.9696 476.737 16.7104V42.1696C476.737 44.1824 477.308 45.8144 478.45 47.0656C479.647 48.3168 481.089 48.9424 482.775 48.9424C484.516 48.9424 485.958 48.2624 487.1 46.9024C488.297 45.488 488.895 43.9104 488.895 42.1696V38.416C488.895 38.1984 489.004 38.0896 489.222 38.0896H498.442C498.66 38.0896 498.769 38.1984 498.769 38.416V42.1696C498.769 45.2704 498.034 48.072 496.566 50.5744C495.151 53.0768 493.247 55.0896 490.854 56.6128C488.46 58.0816 485.767 58.816 482.775 58.816ZM519.832 58.816C516.894 58.816 514.201 58.0816 511.753 56.6128C509.36 55.0896 507.429 53.104 505.96 50.656C504.491 48.1536 503.757 45.4064 503.757 42.4144L503.838 16.5472C503.838 13.5552 504.545 10.8352 505.96 8.3872C507.429 5.9392 509.387 3.9808 511.835 2.512C514.283 1.0432 516.949 0.3088 519.832 0.3088C522.769 0.3088 525.435 1.0432 527.829 2.512C530.222 3.9808 532.126 5.9392 533.541 8.3872C535.009 10.8352 535.744 13.5552 535.744 16.5472L535.825 42.4144C535.825 45.4064 535.091 48.1536 533.622 50.656C532.208 53.104 530.277 55.0896 527.829 56.6128C525.435 58.0816 522.769 58.816 519.832 58.816ZM519.832 48.9424C521.464 48.9424 522.878 48.2896 524.075 46.984C525.326 45.624 525.952 44.1008 525.952 42.4144L525.87 16.5472C525.87 14.752 525.299 13.2288 524.157 11.9776C523.014 10.7264 521.573 10.1008 519.832 10.1008C518.145 10.1008 516.704 10.7264 515.507 11.9776C514.31 13.1744 513.712 14.6976 513.712 16.5472V42.4144C513.712 44.2096 514.31 45.76 515.507 47.0656C516.704 48.3168 518.145 48.9424 519.832 48.9424ZM557.522 58.816C554.639 58.816 551.973 58.0816 549.525 56.6128C547.077 55.0896 545.119 53.0768 543.65 50.5744C542.236 48.072 541.529 45.3248 541.529 42.3328L541.692 1.5328C541.692 1.3152 541.801 1.2064 542.018 1.2064H551.157C551.375 1.2064 551.484 1.3152 551.484 1.5328V42.3328C551.484 44.1824 552.055 45.76 553.197 47.0656C554.394 48.3168 555.836 48.9424 557.522 48.9424C559.263 48.9424 560.705 48.3168 561.847 47.0656C563.044 45.76 563.642 44.1824 563.642 42.3328V1.5328C563.642 1.3152 563.751 1.2064 563.969 1.2064H573.108C573.325 1.2064 573.434 1.3152 573.434 1.5328L573.597 42.3328C573.597 45.3792 572.863 48.1536 571.394 50.656C569.98 53.1584 568.049 55.144 565.601 56.6128C563.207 58.0816 560.514 58.816 557.522 58.816ZM580.449 58C580.177 58 580.041 57.864 580.041 57.592L580.204 1.5328C580.204 1.3152 580.313 1.2064 580.53 1.2064H596.197C601.202 1.2064 605.146 2.7296 608.029 5.776C610.967 8.8224 612.436 12.9568 612.436 18.1792C612.436 22.0416 611.674 25.3872 610.151 28.216C608.628 31.0448 606.642 33.2208 604.194 34.744C601.746 36.2672 599.081 37.0288 596.197 37.0288H589.996V57.592C589.996 57.864 589.86 58 589.588 58H580.449ZM589.996 27.1552H596.197C597.938 27.1552 599.434 26.3392 600.685 24.7072C601.991 23.0208 602.644 20.8448 602.644 18.1792C602.644 16.0576 602.073 14.3168 600.93 12.9568C599.788 11.5968 598.21 10.9168 596.197 10.9168L589.996 10.9984V27.1552ZM618.298 58C618.081 58 617.972 57.864 617.972 57.592L618.053 1.6144C618.053 1.3424 618.189 1.2064 618.461 1.2064H627.519C627.791 1.2064 627.927 1.3424 627.927 1.6144L627.845 47.9632H644.655C644.927 47.9632 645.063 48.0992 645.063 48.3712V57.592C645.063 57.864 644.927 58 644.655 58H618.298ZM650.731 58C650.513 58 650.405 57.864 650.405 57.592L650.486 1.5328C650.486 1.3152 650.595 1.2064 650.813 1.2064H677.006C677.224 1.2064 677.333 1.3424 677.333 1.6144V10.7536C677.333 10.9712 677.224 11.08 677.006 11.08H660.278V23.8096H677.006C677.224 23.8096 677.333 23.9184 677.333 24.136L677.414 33.3568C677.414 33.5744 677.305 33.6832 677.088 33.6832H660.278V47.9632H677.088C677.305 47.9632 677.414 48.0992 677.414 48.3712V57.6736C677.414 57.8912 677.305 58 677.088 58H650.731ZM711.879 58.816C708.941 58.816 706.248 58.0816 703.8 56.6128C701.407 55.0896 699.476 53.104 698.007 50.656C696.538 48.1536 695.804 45.4064 695.804 42.4144L695.885 16.5472C695.885 13.5552 696.592 10.8352 698.007 8.3872C699.476 5.9392 701.434 3.9808 703.882 2.512C706.33 1.0432 708.996 0.3088 711.879 0.3088C714.816 0.3088 717.482 1.0432 719.876 2.512C722.269 3.9808 724.173 5.9392 725.588 8.3872C727.056 10.8352 727.791 13.5552 727.791 16.5472L727.872 42.4144C727.872 45.4064 727.138 48.1536 725.669 50.656C724.255 53.104 722.324 55.0896 719.876 56.6128C717.482 58.0816 714.816 58.816 711.879 58.816ZM711.879 48.9424C713.511 48.9424 714.925 48.2896 716.122 46.984C717.373 45.624 717.999 44.1008 717.999 42.4144L717.917 16.5472C717.917 14.752 717.346 13.2288 716.204 11.9776C715.061 10.7264 713.62 10.1008 711.879 10.1008C710.192 10.1008 708.751 10.7264 707.554 11.9776C706.357 13.1744 705.759 14.6976 705.759 16.5472V42.4144C705.759 44.2096 706.357 45.76 707.554 47.0656C708.751 48.3168 710.192 48.9424 711.879 48.9424ZM734.485 58C734.213 58 734.077 57.864 734.077 57.592L734.24 1.5328C734.24 1.3152 734.349 1.2064 734.566 1.2064H760.678C760.95 1.2064 761.086 1.3152 761.086 1.5328V10.7536C761.086 10.9712 760.977 11.08 760.76 11.08H744.032V23.728H760.76C760.977 23.728 761.086 23.864 761.086 24.136L761.168 33.3568C761.168 33.5744 761.032 33.6832 760.76 33.6832H744.032V57.592C744.032 57.864 743.896 58 743.624 58H734.485ZM780.861 58C780.643 58 780.534 57.864 780.534 57.592L780.698 1.5328C780.698 1.3152 780.806 1.2064 781.024 1.2064H790.979C791.197 1.2064 791.387 1.3152 791.55 1.5328L798.976 12.304L806.402 1.5328C806.565 1.3152 806.755 1.2064 806.973 1.2064H817.01C817.227 1.2064 817.336 1.3152 817.336 1.5328L817.499 57.592C817.499 57.864 817.39 58 817.173 58H807.952C807.734 58 807.626 57.864 807.626 57.592L807.544 15.976L798.976 28.3792L790.49 15.976L790.408 57.592C790.408 57.864 790.299 58 790.082 58H780.861ZM824.77 58C824.498 58 824.362 57.864 824.362 57.592L824.444 1.5328C824.444 1.3152 824.553 1.2064 824.77 1.2064H833.91C834.127 1.2064 834.236 1.3152 834.236 1.5328L834.318 57.592C834.318 57.864 834.209 58 833.991 58H824.77ZM842.23 58C841.794 58 841.577 57.8096 841.577 57.4288L841.495 1.8592C841.495 1.424 841.713 1.2064 842.148 1.2064H849.492L863.282 33.3568L862.874 1.8592C862.874 1.424 863.119 1.2064 863.609 1.2064H871.687C872.014 1.2064 872.177 1.424 872.177 1.8592L872.258 57.5104C872.258 57.8368 872.122 58 871.85 58H864.67L850.553 27.9712L851.124 57.3472C851.124 57.7824 850.879 58 850.39 58H842.23ZM894.361 58.816C891.478 58.816 888.812 58.0816 886.364 56.6128C883.916 55.0896 881.958 53.0768 880.489 50.5744C879.075 48.072 878.368 45.3248 878.368 42.3328L878.531 1.5328C878.531 1.3152 878.64 1.2064 878.857 1.2064H887.996C888.214 1.2064 888.323 1.3152 888.323 1.5328V42.3328C888.323 44.1824 888.894 45.76 890.036 47.0656C891.233 48.3168 892.675 48.9424 894.361 48.9424C896.102 48.9424 897.544 48.3168 898.686 47.0656C899.883 45.76 900.481 44.1824 900.481 42.3328V1.5328C900.481 1.3152 900.59 1.2064 900.808 1.2064H909.947C910.164 1.2064 910.273 1.3152 910.273 1.5328L910.436 42.3328C910.436 45.3792 909.702 48.1536 908.233 50.656C906.819 53.1584 904.888 55.144 902.44 56.6128C900.046 58.0816 897.353 58.816 894.361 58.816ZM925.04 58C924.822 58 924.713 57.864 924.713 57.592V11.08H914.105C913.833 11.08 913.697 10.944 913.697 10.672L913.779 1.5328C913.779 1.3152 913.888 1.2064 914.105 1.2064H945.113C945.385 1.2064 945.521 1.3152 945.521 1.5328V10.672C945.521 10.944 945.412 11.08 945.195 11.08H934.505L934.587 57.592C934.587 57.864 934.478 58 934.26 58H925.04ZM949.878 58C949.66 58 949.551 57.864 949.551 57.592L949.633 1.5328C949.633 1.3152 949.742 1.2064 949.959 1.2064H976.153C976.371 1.2064 976.479 1.3424 976.479 1.6144V10.7536C976.479 10.9712 976.371 11.08 976.153 11.08H959.425V23.8096H976.153C976.371 23.8096 976.479 23.9184 976.479 24.136L976.561 33.3568C976.561 33.5744 976.452 33.6832 976.235 33.6832H959.425V47.9632H976.235C976.452 47.9632 976.561 48.0992 976.561 48.3712V57.6736C976.561 57.8912 976.452 58 976.235 58H949.878ZM997.211 58.816C994.273 58.816 991.581 58.0816 989.133 56.6128C986.739 55.0896 984.808 53.104 983.339 50.656C981.925 48.1536 981.217 45.4064 981.217 42.4144V38.6608C981.217 38.3888 981.353 38.2528 981.625 38.2528H990.765C990.982 38.2528 991.091 38.3888 991.091 38.6608V42.4144C991.091 44.2096 991.689 45.76 992.886 47.0656C994.083 48.3168 995.525 48.9424 997.211 48.9424C998.897 48.9424 1000.34 48.2896 1001.54 46.984C1002.73 45.6784 1003.33 44.1552 1003.33 42.4144C1003.33 40.4016 1002.03 38.6608 999.414 37.192C998.544 36.7024 997.184 35.9408 995.334 34.9072C993.485 33.8736 991.744 32.8944 990.112 31.9696C987.12 30.2288 984.889 28.0528 983.421 25.4416C982.006 22.776 981.299 19.784 981.299 16.4656C981.299 13.4192 982.033 10.6992 983.502 8.3056C984.971 5.8576 986.902 3.9264 989.296 2.512C991.744 1.0976 994.382 0.390399 997.211 0.390399C1000.09 0.390399 1002.73 1.1248 1005.13 2.5936C1007.57 4.008 1009.51 5.9392 1010.92 8.3872C1012.39 10.7808 1013.12 13.4736 1013.12 16.4656V23.1568C1013.12 23.3744 1013.01 23.4832 1012.8 23.4832H1003.66C1003.44 23.4832 1003.33 23.3744 1003.33 23.1568L1003.25 16.4656C1003.25 14.5616 1002.65 13.0112 1001.45 11.8144C1000.26 10.6176 998.843 10.0192 997.211 10.0192C995.525 10.0192 994.083 10.672 992.886 11.9776C991.689 13.2288 991.091 14.7248 991.091 16.4656C991.091 18.2608 991.472 19.7568 992.233 20.9536C992.995 22.1504 994.382 23.2928 996.395 24.3808C996.667 24.544 997.184 24.8432 997.945 25.2784C998.761 25.6592 999.632 26.1216 1000.56 26.6656C1001.48 27.1552 1002.3 27.5904 1003 27.9712C1003.77 28.352 1004.23 28.5968 1004.39 28.7056C1007.11 30.2288 1009.26 32.1056 1010.84 34.336C1012.42 36.512 1013.2 39.2048 1013.2 42.4144C1013.2 45.5152 1012.47 48.3168 1011 50.8192C1009.59 53.2672 1007.66 55.2256 1005.21 56.6944C1002.81 58.1088 1000.15 58.816 997.211 58.816Z" fill="#036430"/>
</svg>
